screens;
 
http://baypic.net/img-51a304ccb158d.html 
 
http://baypic.net/img-51a304cf01a3c.html 
 
http://baypic.net/img-51a304d10b26e.html 

Format : MPEG-4
Format profile : Base Media
Codec ID : isom
File size : 254 MiB
Duration : 11mn 37s
Overall bit rate mode : Variable
Overall bit rate : 3 049 Kbps
Encoded date : UTC 2013-05-16 20:08:12
Tagged date : UTC 2013-05-16 20:08:12
Writing application : Lavf53.32.100

Video
ID : 1
Format : AVC
Format/Info : Advanced Video Codec
Format profile : Main@L4.0
Format settings, CABAC : Yes
Format settings, ReFrames : 6 frames
Codec ID : avc1
Codec ID/Info : Advanced Video Coding
Duration : 11mn 37s
Bit rate : 3 000 Kbps
Width : 1 280 pixels
Height : 720 pixels
Display aspect ratio : 16:9
Frame rate mode : Constant
Frame rate : 29.970 fps
Color space : YUV
Chroma subsampling : 4:2:0
Bit depth : 8 bits
Scan type : Progressive
Bits/(Pixel*Frame) : 0.109
Stream size : 247 MiB (97%)
Writing library : x264 core 124 r2019+178 69a0443
Encoding settings : cabac=1 / ref=6 / deblock=1:0:0 / analyse=0x1:0x111 / me=hex / subme=6 / psy=0 / mixed_ref=1 / me_range=16 / chroma_me=1 / trellis=1 / 8x8dct=0 / cqm=0 / deadzone=21,11 / fast_pskip=0 / chroma_qp_offset=0 / threads=12 / sliced_threads=0 / nr=0 / decimate=1 / interlaced=0 / bluray_compat=0 / constrained_intra=0 / bframes=3 / b_pyramid=2 / b_adapt=1 / b_bias=0 / direct=1 / weightb=1 / open_gop=0 / weightp=2 / keyint=60 / keyint_min=25 / scenecut=40 / intra_refresh=0 / rc_lookahead=40 / rc=2pass / mbtree=0 / bitrate=3000 / ratetol=1.0 / qcomp=0.60 / qpmin=10 / qpmax=51 / qpstep=4 / cplxblur=20.0 / qblur=0.5 / vbv_maxrate=3000 / vbv_bufsize=6000 / nal_hrd=none / ip_ratio=1.40 / pb_ratio=1.30 / aq=1:1.00
Language : English
Encoded date : UTC 2013-05-16 20:08:12
Tagged date : UTC 2013-05-16 20:08:12

Audio
ID : 2
Format : AAC
Format/Info : Advanced Audio Codec
Format profile : LC
Codec ID : 40
Duration : 11mn 37s
Bit rate mode : Variable
Bit rate : 69.5 Kbps
Maximum bit rate : 96.0 Kbps
Channel(s) : 2 channels
Channel positions : Front: L R
Sampling rate : 44.1 KHz
Compression mode : Lossy
Delay relative to video : 67ms
Stream size : 5.78 MiB (2%)
Language : English
